# xmcd
#
# Track frame offsets: 
#        150
#        22132
#        46153
#        64982
#        84140
#        104014
#        121862
#        144653
#        165406
#        185497
#        212692
#        234662
#
# Disc length: 3483 seconds
#
# Revision: 0
# Processed by: cddbd v1.5.2PL0 Copyright (c) Steve Scherf et al.
# Submitted via: ExactAudioCopy v1.3
#
DISCID=a30d990c
DTITLE=Marcus Malone - Stand Or Fall
DYEAR=2014
DGENRE=Chicago Blues, Blues Rock
TTITLE0=Living The Blues
TTITLE1=Stand Or Fall
TTITLE2=Ain't No Tellin'
TTITLE3=It's Gonna Take Time
TTITLE4=Detroit City Blues
TTITLE5=Slow Down
TTITLE6=Jealous Kind
TTITLE7=One Woman Man
TTITLE8=Can't Stop Lovin You
TTITLE9=Under Pressure
TTITLE10=Living The Blues
TTITLE11=It's Gonna Take Time (Extended Version)
EXTD=
EXTT0=
EXTT1=
EXTT2=
EXTT3=
EXTT4=
EXTT5=
EXTT6=
EXTT7=
EXTT8=
EXTT9=
EXTT10=
EXTT11=
PLAYORDER=
